# xmcd
#
# Track frame offsets: 
#        150
#        20955
#        37184
#        64581
#        82120
#        95217
#        106606
#        121425
#        145345
#        161889
#        176875
#        191358
#        209016
#        222691
#
# Disc length: 3307 seconds
#
# Revision: 0
# Processed by: cddbd v1.5.2PL0 Copyright (c) Steve Scherf et al.
# Submitted via: ExactAudioCopy v0.99pb4
#
DISCID=e20ce90e
DTITLE=Laura Lee - Two Sides Of Laura Lee ... plus DISC TWO
DYEAR=2010
DGENRE=Soul
TTITLE0=At Last
TTITLE1=Crumbs Off The Table (Album Version)
TTITLE2=Every Little Bit Hurts
TTITLE3=Guess Who I Saw Today
TTITLE4=If You Can Beat Me Rockin' (You Can Have My Chair)
TTITLE5=Workin' And Lovin' Together
TTITLE6=Rip Off
TTITLE7=When A Man Loves A Woman
TTITLE8=If I'm Good Enough To Love (I'm Good Enough To Mar
TTITLE9=You've Got To Save Me
TTITLE10=Crumbs Off The Table (Single Edit)
TTITLE11=I'll Catch You When I Fall
TTITLE12=I Can't Hold Out Much Longer
TTITLE13=Since I Fell For You (Mono Commercial Single Edit)
EXTD=
EXTT0=
EXTT1=
EXTT2=
EXTT3=
EXTT4=
EXTT5=
EXTT6=
EXTT7=
EXTT8=
EXTT9=
EXTT10=
EXTT11=
EXTT12=
EXTT13=
PLAYORDER=
